<svg width="147" height="48" viewBox="0 0 147 48" version="1.1" xmlns="http://www.w3.org/2000/svg">
  <path d="m122.82 40.93-.45.4c-.65.58-1.31 1.2-2.12.89-.22-.08-.37-.38-.41-.6-.04-1.65.7-3.18 1.43-4.67l.19-.39c2.07-3.46 4.49-7.54 8.04-10.36.6-.43 1.24-.8 1.93-.51.15.14.34.4.34.65 0 .08-.07.3-.12.36-.99 1.6-1.93 3.28-2.85 4.89-1.79 3.17-3.65 6.46-5.98 9.34Zm-19.22-8.15c-.13.1-2.53-.71-3-2.92-.38-1.9.93-3.4 2.2-4.15a2.2 2.2 0 0 1 1.98-.36c.56.38.7 1.05.7 1.77 0 .44-.05.9-.1 1.31l-.01.1a17.83 17.83 0 0 1-1.77 4.25Zm-9.15 9a2.1 2.1 0 0 1-.33-1.19c-.05-2.63 2.79-7.34 4.79-9.9.84 1.83 2.74 3 3.9 3.5-1.43 3.17-6.32 9.95-8.36 7.59Zm34.59.46c-.48.33-1.14.08-.9-.66.62-1.88 3.1-5.7 3.1-5.7l6.86-12.16h-4.7c-.23.37-.7 1.21-.7 1.21a6.45 6.45 0 0 0-1.14-1.34c-1.15-.72-2.84-.38-4 .28-5.06 2.95-8.76 8.78-11.67 13.32 0 0-3.06 5.06-4.76 5.43-1.33.11-1.2-1.67-1.14-2.09.51-3 1.7-5.86 2.9-8.45a65.05 65.05 0 0 0 7.78-6.33c5.5-5.24 10.14-11.18 10.81-12.51 0 0-.73.15-1.6.17-4.23 5.9-12.89 14.45-15.51 15.72 1.16-2.79 8.67-16.1 15.07-22.47l1-.97c1.56-1.52 3.17-3.07 4.43-3.33.13 0 .3 0 .45.31.06 1.18-.38 2.06-.89 3.05l-.7 1.45s1-.2 1.66-.4c.76-1.44 1.6-3.05 1.3-4.97a1.43 1.43 0 0 0-1.14-1.2c-1.91-.35-3.99 1.05-5.66 2.2l-.07.03c-8.6 6.72-15.86 16.4-22.21 29.63-.46.35-2.24.76-2.54.56a21.48 21.48 0 0 0 1.81-4.9c.07-.53.13-1.08.13-1.62 0-1.15-.28-2.24-1.31-2.99-1.22-.6-2.72-.32-3.73.14-4.54 1.87-7.93 6.51-10.38 10.34-1.32 2.42-2.63 5.02-3 8-.25 2.33.27 3.84 1.6 4.59 1.37.7 3.1-.03 3.77-.38 4.6-2.41 7.8-7.25 10.34-11.68.1-.01 1.48-.05 2.53-.32l.04.01-.6 1.81c-1.6 4.7-2.34 7.89-.83 9.78 2.17 2.67 5.75-.1 8.67-3.74-.63 4.37 1.65 5.05 3.38 4.72 1.99-.54 4.2-2.66 5.23-3.74-.33 1.27-.24 3.55 1.57 3.78 1.24.23 2.17-.44 3.25-1.02 3.85-2.1 8.46-9.07 9.66-11.08h-1.57c-1.7 2.56-3.87 5.93-6.6 7.53ZM69.68 16.21h4.4l2.5-4.03h-4.42l-2.48 4.03Zm70.44-10.7c-3.36 1.9-6.85 3.13-11.07 2.7a64.6 64.6 0 0 0-3.36 4.06c5.93 1.5 12.2-1.83 15.7-5.01C145.1 4.06 147 .02 147 .02s-2.78 3.16-6.88 5.48Zm-37.08-1.03c-.7 8.02-6.95 12.73-8.5 13.1-.94.2-2.54-.22-1.1-3.59 2.1-4.53 5.68-8.38 9.53-10.35.1.33.1.55.07.84ZM90.86 24.7a2.74 2.74 0 0 0-2.65-1.51c-3.68.33-7.27 3.35-9.16 7.68-1 2.23-1.54 4.06-1.9 6.99a19.38 19.38 0 0 1 6.13-4.65s.36-2.8 2.2-5.3c.7-1.03 2.09-2.7 3.65-2.26 1.37.46.89 4.23-.93 7.88a25.3 25.3 0 0 1-5.47 7.21c-1.84 1.56-4.56 3.43-6.94 1.99-1.5-.89-2.26-2.74-2.1-5.13.72-6.77 3.8-12.54 8.23-19.1 4.56-6.1 9.6-12.37 16.36-15.71 1.39-.7 2.67-.86 3.77-.43 0 0-6.36 3.49-9.39 9.94-.77 1.63-1.84 3.85-.76 5.8.56 1.02 1.56 1.1 2.37 1.05 3.72-.86 6.12-4.32 8.08-7.48 1.14-2.4 2.15-4.79 2.15-7.45 0-.32-.02-.75-.05-1.07 1.78-.94 5.42.73 5.42.73 2.84.93 8.9 5.56 10.94 6.45 1-1.16 2.63-2.9 3.56-3.77l-1.34-.82c-2.14-1.3-4.4-2.53-6.62-3.75-5.05-2.75-9.16-1.79-11.25-1.04-.82.3-1.57.55-1.57.55C102.04-.2 99.49-.04 97.6.42c-6.74 1.93-13 6.64-19.72 14.8-4.94 6.4-8 11.93-9.63 17.38-1.26 3.68-1.64 9.08 1.43 12.29 2.6 2.72 6.07 2.13 8.52 1.15 5.3-2.6 10.05-8.2 12.43-14.66.57-1.91 1.2-4.62.22-6.69Zm-58.72-6.22c0 .03-.9 2.07-.9 2.07-.13.1-.33.05-.56 0l-.4-.07c-1.26-.39-2.2-1.22-2.5-2.21-.4-1.94 1.25-3.45 1.98-4 .7-.48 1.79-.74 2.42-.24.39.45.54 1.04.54 1.69 0 .87-.27 1.85-.58 2.76Zm-1.91 3.88-.06.16-2.03 3.28c-1.22 1.62-2.74 3.66-4.64 4.64-.56.19-1.34.31-1.74-.19-.84-1-.41-2.4-.06-3.52l.13-.4c1-2.74 2.61-5.15 4.17-7.4a.2.2 0 0 1 .08-.02l.02.04c.98 1.88 2.81 2.75 4.19 3.15l.01.04c0 .04-.02.1-.07.22Zm25.26-2.16c.9-1.25 3.54-4.59 4.18-5.15 2.16-1.9 3.02-1.06 3.1-.47-2.02 3.6-4.4 7.7-6.63 11.41l-.7 1.06c-.98 1.5-1.98 2.79-3.6 3.69-.23.06-.6.1-.86-.1a.91.91 0 0 1-.4-.88c.1-1.16 1.28-4.68 4.91-9.56ZM33.1 12.03c-2.78-1.82-8.39 1.67-12.87 7.65-4.1 5.36-5.88 11.6-3.95 14.48 2.87 3.4 8.2-1.54 10.46-4.18l.29-.31c1.54-1.65 2.73-3.64 3.88-5.54 0 0 1.06-1.74 1.1-1.83.66-.12 1.45-.3 2.34-.56-.01.04-3.4 5.71-3.05 8.53.1.86.02 4 3.1 4.95 4.09.68 7.36-2.48 10.24-5.3l.77-.73-.16.65c-1.2 4.16.42 5.03 1.43 5.35 3.05.89 6.7-3.54 6.72-3.54-.1 1.4-.38 2.55 1.1 3.48 1.39.5 2.8-.26 3.87-.98 3.85-2.7 6.96-6.94 9.46-10.6h-1.6c-.01 0-3.94 5.67-6.5 6.9 0 0-.46.24-.73.05-.33-.28-.2-.86 0-1.28l9.85-17.04h-4.64s-.5.82-.55.87c-.03-.02-.1-.16-.16-.23-2.87-3.97-9.4 2.13-14.3 9.21a46.55 46.55 0 0 1-6.78 8s-3.7 3.38-5.28.96c-.57-1.02-.4-2.51-.07-3.5 1.84-5.2 5-9.94 8.6-12.8 1.02-.8 2.13-1.02 2.68-.68.52.3.6 1.07.27 1.6a2.6 2.6 0 0 0-2.05.78c-1.08 1.13-1.45 2.22-1.11 3.23 1.66 2.36 4.98-2.3 4.82-5.15a3.05 3.05 0 0 0-1.42-2.45c-1.21-.72-3.06-.54-4.26.04-1.6.6-4.14 2.7-5.62 4.35-1.87 2.05-5.06 4.33-6.06 4.07.32-.87 3.02-6.38.18-8.45Zm23.35 29.84c-5.47-3.51-12.9-4.13-24.87-.82-12.76 3-17.02 4.91-22.6 1.06-2.15-1.89-2.92-4.93-2.35-9.32 1.34-7.15 4.94-14.02 11.34-21.65 3.57-3.97 6.88-7.38 11.26-8.75 3.35-.86 3.04 1.77 2.63 2.15-.42 0-1.14.07-1.7.43-.45.35-1.69 1.47-1.76 2.99-.1 2.32 2.32 1.83 3.35.56 1.12-1.43 2.78-4.18 1.48-6.74A3.82 3.82 0 0 0 30.57.02c-4-.23-7.74 1.67-11.18 3.78C11.86 9.02 5.84 16.24 2.43 24.16.46 28.93-1.32 35.77 1.35 41.34c2.06 3.86 6.34 5.9 11.44 5.48 3.58-.38 7.91-1.53 10.82-2.23 2.92-.7 17.82-5.8 22.72 3.09 0 0 1.62-3.15 5.7-3.22 3.34-.3 8.17.97 11.68 3.54-1.17-1.76-4.49-4.34-7.26-6.13Z" fill="#006AFF" fill-rule="nonzero" opacity="1"/>
</svg>
