<svg width="106.98" height="44" viewBox="0 0 106.98 44" version="1.1" xmlns="http://www.w3.org/2000/svg">
  <path d="M92.46 19.13c-1.81.42-6.59.65-6.59.65l-.59 1.87s2.37-.2 4.1-.03c0 0 .56-.04.62.62.03.67-.05 1.38-.05 1.38s-.04.42-.62.52c-.66.11-5.14.31-5.14.31l-.73 2.43s-.26.55.34.4c.56-.16 5.26-1.05 5.87-.92.65.15 1.4 1.04 1.18 1.84-.25.97-4.95 3.95-7.8 3.75 0 0-1.5.09-2.74-1.92-1.2-1.92.41-5.53.41-5.53s-.72-1.7-.18-2.3c0 0 .3-.27 1.24-.35l1.15-2.36s-1.3.07-2.08-.88c-.71-.92-.77-1.32-.22-1.57.59-.3 6.03-1.27 9.77-1.15 0 0 1.31-.15 2.47 2.1 0 0 .53.93-.4 1.14m-14.11 9.1c-.46 1.12-1.75 2.3-3.3 1.58-1.57-.74-4.06-5.77-4.06-5.77s-.92-1.88-1.11-1.82c0 0-.2-.37-.3 1.7-.16 2.04.02 6.02-.83 6.65-.77.61-1.7.35-2.22-.37-.44-.73-.62-2.46-.37-5.49.27-3.03.97-6.25 1.85-7.25.93-1.01 1.67-.28 1.95 0 0 0 1.19 1.08 3.2 4.26l.34.58s1.82 3.03 2 3.01c0 0 .16.15.28.03.19-.04.13-1.03.13-1.03s-.34-3.27-2.04-8.8c0 0-.25-.7-.08-1.38.15-.62.82-.31.82-.31s2.56 1.23 3.82 5.38c1.23 4.14.4 7.9-.06 9.03m-12.6-10.65c-.25.43-.36 1.03-1.42 1.2 0 0-10.36.72-10.87 1.45 0 0-.34.43.22.53.58.13 2.93.43 4.05.5 1.2 0 5.25.03 6.74 1.84 0 0 .85.86.81 2.81-.03 2-.38 2.7-1.17 3.43-.82.67-7.84 3.8-12.36-.99 0 0-2.08-2.3.72-4.05 0 0 2.01-1.23 7.16.2 0 0 1.54.55 1.48 1.12-.09.61-1.28 1.23-3.01 1.2-1.67-.05-2.9-.85-2.66-.71.23.08-1.8-.98-2.44-.26-.62.67-.47 1.07.15 1.49 1.55.89 7.62.57 9.43-1.45 0 0 .73-.81-.37-1.47-1.08-.61-4.24-1-5.46-1.05-1.16-.06-5.5 0-6.15-1.12 0 0-.62-.8.06-2.98.71-2.3 5.77-3.2 7.96-3.38 0 0 6.03-.24 7.16.99 0 0 .15.27-.03.69m-17.1 13.52c-.72.54-2.27.3-2.72-.3-.43-.55-.58-2.67-.5-6 .1-3.41.15-7.6.92-8.27.77-.66 1.24-.07 1.55.37.3.46.7.97.77 2.03.1 1.08.36 6.6.36 6.6s.34 5.05-.36 5.57m1.53-17.98c-2.13.72-3.59.5-4.82-.04-.54.96-.87 1.26-1.27 1.32-.62.06-1.16-.92-1.24-1.23-.12-.23-.41-.65-.06-1.58a3.57 3.57 0 0 1-1.08-3.5c.28-1.13 2.32-5.4 8.5-5.9 0 0 3.03-.22 3.56 1.38h.09s2.94 0 2.87 2.6c0 2.62-3.24 5.88-6.55 7m2.75-7.48c-1.95.3-4.94 2.88-6.38 5.02 2.2.4 6.07.25 7.8-3.23 0 0 .82-2.18-1.42-1.8m-8.55 1.7c-.61 1-.64 1.6-.35 2 .73-1.08 2-2.77 3.94-4.1a4.57 4.57 0 0 0-3.59 2.1M97.1 30.98a45.74 45.74 0 0 0-3.32 12.26s-.16 1.03-1 .7c-.86-.31-2.25-1.7-2.56-3.65-.3-2.55.84-6.85 3.17-11.8a6.78 6.78 0 0 1-.77-4.92s.62-4.14 4.8-7.9c0 0 .49-.4.76-.27.34.15.2 1.48-.07 2.15-.25.65-2.1 3.84-2.1 3.84s-1.16 2.18-.84 3.89c2.2-3.35 7.19-10.14 10.28-7.99 1.96 1.38 1.96 5.84.5 8.42-1.17 2.04-4.44 6.27-8.82 5.29m6.43-10.45a29.81 29.81 0 0 0-4.79 6.73 7.94 7.94 0 0 0 3.87-1.6c.81-.72 2.7-2.67 2.4-5.25 0 0-.18-1.36-1.48.12M34.31 32.79a25.36 25.36 0 0 1-13.45.16c-.07 1.13-.2 1.61-.38 1.8-.22.24-2.01 1.25-3-.19-.43-.7-.65-1.94-.77-3.07-6.34-2.86-9.28-7.07-9.37-7.22a2.53 2.53 0 0 1-.15-3.5c1.34-1.65 5.8-3.33 9.78-3.99.15-3.38.52-5.99 1-7.14.58-1.38 1.3-.15 1.95.77.53.69.85 3.65.88 6.02 2.6-.12 4.18.06 7.07.61 3.8.65 6.33 2.59 6.13 4.77a3.52 3.52 0 0 1-2.94 3.1c-.77.06-2-.5-2-.5-.87-.4-.08-.77.92-1.2 1.12-.54.87-1.08.87-1.08-.4-1.23-5.33-2.04-10.23-2.04 0 2.69.1 7.14.18 9.74 3.43.64 6 .5 6 .5s12.52-.35 12.87-8.3c.39-7.95-12.52-15.57-22.02-17.97-9.5-2.47-14.87-.72-15.33-.49-.51.25-.05.34-.05.34s.51.08 1.44.38c.93.31.18.77.18.77-1.62.55-3.43.23-3.78-.5-.36-.73.23-1.39.92-2.36.65-1 1.4-.96 1.4-.96C14.17-2.84 28.5 4.46 28.5 4.46c13.42 6.73 15.7 14.64 15.46 17.72-.22 3.02-1.39 8.14-9.66 10.63M8.5 21.8c-1.33.61-.4 1.6-.4 1.6a21.42 21.42 0 0 0 8.5 5.37c.34-4.6.3-6.25.3-8.57-4.54.3-7.16 1.04-8.4 1.6" fill="#006AFF" fill-rule="nonzero" opacity="1"/>
</svg>
