<svg width="103.27" height="29.01" viewBox="0 0 103.27 29.01" version="1.1" xmlns="http://www.w3.org/2000/svg">
  <path d="M7.26 0c3.1 0 5.82 1.95 6.84 4.82l.06.2L19 22.3l.03.07c.22.46.66.78 1.18.83h.14a1.47 1.47 0 0 0 1.46-1.44V.73h5.8v21.03a7.25 7.25 0 0 1-14.1 2.43l-.06-.19L8.61 6.7l-.03-.06A1.45 1.45 0 0 0 7.4 5.8h-.14c-.8 0-1.46.64-1.46 1.44V28.3H0V7.25C0 3.25 3.25 0 7.26 0ZM40.7 0c3.07 0 5.81 1.93 6.86 4.9l5.71 17.58h14.7a2.54 2.54 0 0 0 2.54-2.53c0-1.4-1.14-2.54-2.55-2.54H60.7a8.35 8.35 0 1 1 0-16.68h14.18v5.8H60.69a2.55 2.55 0 0 0-2.56 2.54c0 1.4 1.15 2.54 2.56 2.54h7.27a8.35 8.35 0 1 1 0 16.68h-18.9L42.07 6.77c-.2-.58-.75-.97-1.37-.97-.61 0-1.16.39-1.34.89l-7.01 21.6h-6.1l7.62-23.47A7.26 7.26 0 0 1 40.7 0Zm48.1 0a7.29 7.29 0 0 1 6.86 4.9l7.6 23.38h-6.1L90.18 6.77c-.2-.58-.76-.97-1.38-.97-.62 0-1.17.4-1.35.9l-7.02 21.58h-6.1l7.63-23.46A7.26 7.26 0 0 1 88.79 0Z" fill="#006AFF" fill-rule="nonzero" opacity="1"/>
</svg>
