
<svg width="88.1" height="31.43" viewBox="0 0 88.1 31.43" version="1.1" xmlns="http://www.w3.org/2000/svg">
  <path d="M9.72 31.42c-2.63-.1-4.77-.83-6.45-2.16a12.92 12.92 0 0 1-1.34-1.35A8.4 8.4 0 0 1 .47 25.3c-.95-2.85-.46-6.59 1.4-10.7 1.6-3.5 4.05-6.99 8.34-11.81L12.73 0l-.22.4a25.3 25.3 0 0 0-2.6 5.97c-.83 3.06-.73 5.68.3 7.72a7.53 7.53 0 0 0 3.3 3.29c2.4 1.17 5.9 1.27 10.18.28l32.47-8.63L88.1.53 26.11 27.1a81.82 81.82 0 0 1-5.83 2.35c-4.03 1.42-7.64 2.1-10.56 1.98Z" fill="#006AFF" fill-rule="nonzero" opacity="1"/>
</svg>