<svg width="106" height="44" viewBox="0 0 106 44" xmlns="http://www.w3.org/2000/svg">
  <path d="M106 22.73c0-7.52-3.65-13.45-10.63-13.45-7 0-11.25 5.93-11.25 13.4 0 8.84 5 13.3 12.2 13.3 3.5 0 6.15-.8 8.15-1.9V28.2c-2 1-4.3 1.61-7.21 1.61-2.86 0-5.4-1-5.72-4.46h14.4c0-.38.06-1.91.06-2.62Zm-14.55-2.79c0-3.32 2.04-4.7 3.9-4.7 1.79 0 3.7 1.38 3.7 4.7h-7.6ZM72.75 9.28a8.33 8.33 0 0 0-5.76 2.3l-.39-1.83h-6.47V44l7.36-1.56.03-8.3a8.3 8.3 0 0 0 5.2 1.84c5.28 0 10.08-4.23 10.08-13.54-.03-8.52-4.89-13.16-10.04-13.16ZM71 29.52a4.4 4.4 0 0 1-3.47-1.38l-.03-10.9a4.39 4.39 0 0 1 3.5-1.44c2.68 0 4.54 3 4.54 6.85 0 3.93-1.83 6.87-4.54 6.87ZM57.4 5.96V0l-7.4 1.56v5.99l7.4-1.59Zm-7.4 3.82h7.4v25.7h-7.4Zm-7.91 2.17-.47-2.17h-6.36v25.7h7.36V18.06c1.73-2.26 4.68-1.85 5.6-1.52V9.78c-.95-.35-4.4-1-6.13 2.17ZM27.35 3.41l-7.18 1.52-.03 23.53a7.39 7.39 0 0 0 7.63 7.55c2.41 0 4.18-.44 5.15-.97v-5.96c-.94.38-5.6 1.73-5.6-2.62V16.04h5.6V9.78h-5.6l.03-6.37ZM7.45 17.24c0-1.14.94-1.58 2.5-1.58 2.24 0 5.07.67 7.3 1.88v-6.9a19.46 19.46 0 0 0-7.3-1.36C3.98 9.28 0 12.4 0 17.6c0 8.11 11.19 6.82 11.19 10.31 0 1.36-1.18 1.8-2.83 1.8-2.44 0-5.56-1-8.04-2.35v6.99A20.45 20.45 0 0 0 8.36 36c6.13 0 10.34-3.02 10.34-8.28-.03-8.76-11.25-7.2-11.25-10.49Z" fill="#006AFF" fill-rule="nonzero" opacity="1"/>
</svg>
